<?xml version="1.0" encoding="UTF-8" standalone="no"?>
<svg width="85px" height="37px" viewBox="0 0 85 37" version="1.1" xmlns="http://www.w3.org/2000/svg" xmlns:xlink="http://www.w3.org/1999/xlink" xmlns:sketch="http://www.bohemiancoding.com/sketch/ns">
    <!-- Generator: Sketch 3.1.1 (8761) - http://www.bohemiancoding.com/sketch -->
    <title>Group 2</title>
    <desc>Created with Sketch.</desc>
    <defs></defs>
    <g id="Page-1" stroke="none" stroke-width="1" fill="none" fill-rule="evenodd" sketch:type="MSPage">
        <g id="Group-2" sketch:type="MSLayerGroup">
            <rect id="Rectangle-1" fill="#ACE779" sketch:type="MSShapeGroup" x="26" y="4" width="13" height="15" rx="8"></rect>
            <rect id="Rectangle-3" fill="#ACE779" sketch:type="MSShapeGroup" x="57" y="1" width="13" height="15" rx="8"></rect>
            <rect id="Rectangle-4" fill="#ACE779" sketch:type="MSShapeGroup" x="11" y="1" width="13" height="15" rx="8"></rect>
            <rect id="Rectangle-2" fill="#ACE779" sketch:type="MSShapeGroup" x="42" y="4" width="13" height="15" rx="8"></rect>
            <rect id="Rectangle-5" fill="#ACE779" sketch:type="MSShapeGroup" x="72" y="0" width="9" height="10" rx="8"></rect>
            <rect id="Rectangle-6" fill="#ACE779" sketch:type="MSShapeGroup" x="2" y="1" width="9" height="10" rx="8"></rect>
            <path d="M41.7460937,36.3759768 C65.2181956,36.3759768 84.1826172,15.3859813 84.1826172,8.48242189 C84.1826172,1.57886252 65.2181956,11.6425781 41.7460937,11.6425781 C18.2739919,11.6425781 1.11022302e-16,1.57886264 1.11022302e-16,8.48242201 C1.11022302e-16,15.3859814 18.2739919,36.3759768 41.7460937,36.3759768 Z" id="Oval-2" fill="#A91399" sketch:type="MSShapeGroup"></path>
        </g>
    </g>
</svg>